<?xml version="1.0" encoding="utf-8" standalone="no"?>
<!DOCTYPE svg PUBLIC "-//W3C//DTD SVG 1.1//EN"
  "http://www.w3.org/Graphics/SVG/1.1/DTD/svg11.dtd">
<!-- Created with matplotlib (http://matplotlib.org/) -->
<svg height="144pt" version="1.1" viewBox="0 0 432 144" width="432pt" xmlns="http://www.w3.org/2000/svg" xmlns:xlink="http://www.w3.org/1999/xlink">
 <defs>
  <style type="text/css">
*{stroke-linecap:butt;stroke-linejoin:round;}
  </style>
 </defs>
 <g id="figure_1">
  <g id="patch_1">
   <path d="
M0 144
L432 144
L432 0
L0 0
z
" style="fill:#ffffff;"/>
  </g>
  <g id="axes_1">
   <g id="patch_2">
    <path d="
M68.8647 106.436
L410.729 106.436
L410.729 24.3883
L68.8647 24.3883
z
" style="fill:#ffffff;"/>
   </g>
   <g id="line2d_1">
    <path clip-path="url(#p13eeb3db45)" d="
M218.308 104.385
L218.308 87.975
L242.402 87.975
L242.402 104.385
L218.308 104.385" style="fill:none;stroke:#0000ff;stroke-linecap:square;"/>
   </g>
   <g id="line2d_2">
    <path clip-path="url(#p13eeb3db45)" d="
M218.308 96.1798
L180.54 96.1798" style="fill:none;stroke:#0000ff;stroke-dasharray:6.000000,6.000000;stroke-dashoffset:0.0;"/>
   </g>
   <g id="line2d_3">
    <path clip-path="url(#p13eeb3db45)" d="
M242.402 96.1798
L282.774 96.1798" style="fill:none;stroke:#0000ff;stroke-dasharray:6.000000,6.000000;stroke-dashoffset:0.0;"/>
   </g>
   <g id="line2d_4">
    <path clip-path="url(#p13eeb3db45)" d="
M180.54 100.282
L180.54 92.0774" style="fill:none;stroke:#000000;stroke-linecap:square;"/>
   </g>
   <g id="line2d_5">
    <path clip-path="url(#p13eeb3db45)" d="
M282.774 100.282
L282.774 92.0774" style="fill:none;stroke:#000000;stroke-linecap:square;"/>
   </g>
   <g id="line2d_6">
    <path clip-path="url(#p13eeb3db45)" d="
M229.378 104.385
L229.378 87.975" style="fill:none;stroke:#ff0000;stroke-linecap:square;"/>
   </g>
   <g id="line2d_7"/>
   <g id="line2d_8">
    <path clip-path="url(#p13eeb3db45)" d="
M220.913 83.8727
L220.913 67.4632
L240.122 67.4632
L240.122 83.8727
L220.913 83.8727" style="fill:none;stroke:#0000ff;stroke-linecap:square;"/>
   </g>
   <g id="line2d_9">
    <path clip-path="url(#p13eeb3db45)" d="
M220.913 75.6679
L173.378 75.6679" style="fill:none;stroke:#0000ff;stroke-dasharray:6.000000,6.000000;stroke-dashoffset:0.0;"/>
   </g>
   <g id="line2d_10">
    <path clip-path="url(#p13eeb3db45)" d="
M240.122 75.6679
L287.332 75.6679" style="fill:none;stroke:#0000ff;stroke-dasharray:6.000000,6.000000;stroke-dashoffset:0.0;"/>
   </g>
   <g id="line2d_11">
    <path clip-path="url(#p13eeb3db45)" d="
M173.378 79.7703
L173.378 71.5656" style="fill:none;stroke:#000000;stroke-linecap:square;"/>
   </g>
   <g id="line2d_12">
    <path clip-path="url(#p13eeb3db45)" d="
M287.332 79.7703
L287.332 71.5656" style="fill:none;stroke:#000000;stroke-linecap:square;"/>
   </g>
   <g id="line2d_13">
    <path clip-path="url(#p13eeb3db45)" d="
M226.448 83.8727
L226.448 67.4632" style="fill:none;stroke:#ff0000;stroke-linecap:square;"/>
   </g>
   <g id="line2d_14"/>
   <g id="line2d_15">
    <path clip-path="url(#p13eeb3db45)" d="
M234.588 63.3608
L234.588 46.9513
L298.077 46.9513
L298.077 63.3608
L234.588 63.3608" style="fill:none;stroke:#0000ff;stroke-linecap:square;"/>
   </g>
   <g id="line2d_16">
    <path clip-path="url(#p13eeb3db45)" d="
M234.588 55.1561
L163.936 55.1561" style="fill:none;stroke:#0000ff;stroke-dasharray:6.000000,6.000000;stroke-dashoffset:0.0;"/>
   </g>
   <g id="line2d_17">
    <path clip-path="url(#p13eeb3db45)" d="
M298.077 55.1561
L398.682 55.1561" style="fill:none;stroke:#0000ff;stroke-dasharray:6.000000,6.000000;stroke-dashoffset:0.0;"/>
   </g>
   <g id="line2d_18">
    <path clip-path="url(#p13eeb3db45)" d="
M163.936 59.2584
L163.936 51.0537" style="fill:none;stroke:#000000;stroke-linecap:square;"/>
   </g>
   <g id="line2d_19">
    <path clip-path="url(#p13eeb3db45)" d="
M398.682 59.2584
L398.682 51.0537" style="fill:none;stroke:#000000;stroke-linecap:square;"/>
   </g>
   <g id="line2d_20">
    <path clip-path="url(#p13eeb3db45)" d="
M257.053 63.3608
L257.053 46.9513" style="fill:none;stroke:#ff0000;stroke-linecap:square;"/>
   </g>
   <g id="line2d_21"/>
   <g id="line2d_22">
    <path clip-path="url(#p13eeb3db45)" d="
M283.425 42.849
L283.425 26.4395
L389.078 26.4395
L389.078 42.849
L283.425 42.849" style="fill:none;stroke:#0000ff;stroke-linecap:square;"/>
   </g>
   <g id="line2d_23">
    <path clip-path="url(#p13eeb3db45)" d="
M283.425 34.6442
L224.494 34.6442" style="fill:none;stroke:#0000ff;stroke-dasharray:6.000000,6.000000;stroke-dashoffset:0.0;"/>
   </g>
   <g id="line2d_24">
    <path clip-path="url(#p13eeb3db45)" d="
M389.078 34.6442
L401.938 34.6442" style="fill:none;stroke:#0000ff;stroke-dasharray:6.000000,6.000000;stroke-dashoffset:0.0;"/>
   </g>
   <g id="line2d_25">
    <path clip-path="url(#p13eeb3db45)" d="
M224.494 38.7466
L224.494 30.5418" style="fill:none;stroke:#000000;stroke-linecap:square;"/>
   </g>
   <g id="line2d_26">
    <path clip-path="url(#p13eeb3db45)" d="
M401.938 38.7466
L401.938 30.5418" style="fill:none;stroke:#000000;stroke-linecap:square;"/>
   </g>
   <g id="line2d_27">
    <path clip-path="url(#p13eeb3db45)" d="
M358.31 42.849
L358.31 26.4395" style="fill:none;stroke:#ff0000;stroke-linecap:square;"/>
   </g>
   <g id="line2d_28"/>
   <g id="patch_3">
    <path d="
M68.8647 24.3883
L410.729 24.3883" style="fill:none;stroke:#000000;stroke-linecap:square;stroke-linejoin:miter;"/>
   </g>
   <g id="patch_4">
    <path d="
M410.729 106.436
L410.729 24.3883" style="fill:none;stroke:#000000;stroke-linecap:square;stroke-linejoin:miter;"/>
   </g>
   <g id="patch_5">
    <path d="
M68.8647 106.436
L410.729 106.436" style="fill:none;stroke:#000000;stroke-linecap:square;stroke-linejoin:miter;"/>
   </g>
   <g id="patch_6">
    <path d="
M68.8647 106.436
L68.8647 24.3883" style="fill:none;stroke:#000000;stroke-linecap:square;stroke-linejoin:miter;"/>
   </g>
   <g id="matplotlib.axis_1">
    <g id="xtick_1">
     <g id="line2d_29">
      <defs>
       <path d="
M0 0
L0 -4" id="m93b0483c22" style="stroke:#000000;stroke-width:0.5;"/>
      </defs>
      <g>
       <use style="stroke:#000000;stroke-width:0.5;" x="68.8646875" xlink:href="#m93b0483c22" y="106.435725"/>
      </g>
     </g>
     <g id="line2d_30">
      <defs>
       <path d="
M0 0
L0 4" id="m741efc42ff" style="stroke:#000000;stroke-width:0.5;"/>
      </defs>
      <g>
       <use style="stroke:#000000;stroke-width:0.5;" x="68.8646875" xlink:href="#m741efc42ff" y="24.388275"/>
      </g>
     </g>
     <g id="text_1">
      <!-- 0 -->
      <defs>
       <path d="
M46.1875 33.0156
Q46.1875 24.8125 44.8906 18.4531
Q43.6094 12.1094 40.9688 7.78125
Q38.3281 3.46875 34.2656 1.23438
Q30.2188 -0.984375 24.7031 -0.984375
Q14.3594 -0.984375 9.07812 7.70312
Q3.8125 16.4062 3.8125 33.0156
Q3.8125 49.2656 9.07812 57.875
Q14.3594 66.5 25.0938 66.5
Q35.4531 66.5 40.8125 57.9844
Q46.1875 49.4688 46.1875 33.0156
M37.2031 33.0156
Q37.2031 40.0469 36.5938 45.5625
Q35.9844 51.0781 34.5469 54.8594
Q33.1094 58.6406 30.6875 60.6094
Q28.2656 62.5938 24.7031 62.5938
Q21.0938 62.5938 18.7656 60.6094
Q16.4531 58.6406 15.125 54.8594
Q13.8125 51.0781 13.2969 45.5625
Q12.7969 40.0469 12.7969 33.0156
Q12.7969 25.9844 13.2969 20.3906
Q13.8125 14.7969 15.125 10.9062
Q16.4531 7.03125 18.7656 4.95312
Q21.0938 2.875 24.7031 2.875
Q28.2656 2.875 30.6875 4.95312
Q33.1094 7.03125 34.5469 10.9062
Q35.9844 14.7969 36.5938 20.3906
Q37.2031 25.9844 37.2031 33.0156" id="LiberationSerif-30"/>
      </defs>
      <g transform="translate(66.3221875 118.7626)scale(0.12 -0.12)">
       <use xlink:href="#LiberationSerif-30"/>
      </g>
     </g>
    </g>
    <g id="xtick_2">
     <g id="line2d_31">
      <g>
       <use style="stroke:#000000;stroke-width:0.5;" x="137.2375625" xlink:href="#m93b0483c22" y="106.435725"/>
      </g>
     </g>
     <g id="line2d_32">
      <g>
       <use style="stroke:#000000;stroke-width:0.5;" x="137.2375625" xlink:href="#m741efc42ff" y="24.388275"/>
      </g>
     </g>
     <g id="text_2">
      <!-- 20 -->
      <defs>
       <path d="
M44.4844 0
L4.39062 0
L4.39062 7.17188
Q9.32812 11.7656 13.4531 15.4062
Q17.5781 19.0469 20.875 22.1875
Q24.1719 25.3438 26.6406 28.2188
Q29.1094 31.1094 30.7344 34.2344
Q32.375 37.3594 33.1719 40.9688
Q33.9844 44.5781 33.9844 49.125
Q33.9844 55.4688 31.0938 58.7812
Q28.2188 62.1094 21.6875 62.1094
Q20.2188 62.1094 18.7656 61.8906
Q17.3281 61.6719 16.0156 61.2969
Q14.7031 60.9375 13.5469 60.4688
Q12.4062 60.0156 11.5312 59.5156
L9.8125 51.5156
L6.59375 51.5156
L6.59375 64.1094
Q10.2969 64.9844 13.8906 65.5938
Q17.4844 66.2188 21.6875 66.2188
Q32.4219 66.2188 37.8125 61.75
Q43.2188 57.2812 43.2188 49.125
Q43.2188 45.125 42.1562 41.7031
Q41.1094 38.2812 39.1562 35.125
Q37.2031 31.9844 34.375 28.9219
Q31.5469 25.875 27.9219 22.6094
Q24.3125 19.3438 19.9844 15.6562
Q15.6719 11.9688 10.7969 7.51562
L44.4844 7.51562
z
" id="LiberationSerif-32"/>
      </defs>
      <g transform="translate(131.72975 118.7626)scale(0.12 -0.12)">
       <use xlink:href="#LiberationSerif-32"/>
       <use x="50.0" xlink:href="#LiberationSerif-30"/>
      </g>
     </g>
    </g>
    <g id="xtick_3">
     <g id="line2d_33">
      <g>
       <use style="stroke:#000000;stroke-width:0.5;" x="205.6104375" xlink:href="#m93b0483c22" y="106.435725"/>
      </g>
     </g>
     <g id="line2d_34">
      <g>
       <use style="stroke:#000000;stroke-width:0.5;" x="205.6104375" xlink:href="#m741efc42ff" y="24.388275"/>
      </g>
     </g>
     <g id="text_3">
      <!-- 40 -->
      <defs>
       <path d="
M39.5469 14.4062
L39.5469 0
L31.1562 0
L31.1562 14.4062
L1.95312 14.4062
L1.95312 20.9062
L33.9375 65.8281
L39.5469 65.8281
L39.5469 21.3906
L48.4375 21.3906
L48.4375 14.4062
z

M31.1562 54.3438
L30.9062 54.3438
L7.46875 21.3906
L31.1562 21.3906
z
" id="LiberationSerif-34"/>
      </defs>
      <g transform="translate(199.956375 118.7626)scale(0.12 -0.12)">
       <use xlink:href="#LiberationSerif-34"/>
       <use x="50.0" xlink:href="#LiberationSerif-30"/>
      </g>
     </g>
    </g>
    <g id="xtick_4">
     <g id="line2d_35">
      <g>
       <use style="stroke:#000000;stroke-width:0.5;" x="273.9833125" xlink:href="#m93b0483c22" y="106.435725"/>
      </g>
     </g>
     <g id="line2d_36">
      <g>
       <use style="stroke:#000000;stroke-width:0.5;" x="273.9833125" xlink:href="#m741efc42ff" y="24.388275"/>
      </g>
     </g>
     <g id="text_4">
      <!-- 60 -->
      <defs>
       <path d="
M47.0156 20.3125
Q47.0156 15.2344 45.7188 11.2812
Q44.4375 7.32812 41.8906 4.59375
Q39.3594 1.85938 35.625 0.4375
Q31.8906 -0.984375 27 -0.984375
Q21.625 -0.984375 17.4062 1.10938
Q13.1875 3.21875 10.2812 7.39062
Q7.375 11.5781 5.82812 17.7969
Q4.29688 24.0312 4.29688 32.3281
Q4.29688 41.2188 6.3125 47.6094
Q8.34375 54 11.7344 58.1562
Q15.1406 62.3125 19.5781 64.2656
Q24.0312 66.2188 28.8125 66.2188
Q32.4688 66.2188 36.2188 65.7188
Q39.9844 65.2344 43.0156 64.5
L43.0156 53.2188
L39.7969 53.2188
L38.0938 59.9062
Q37.2031 60.4062 36.0469 60.7969
Q34.9062 61.1875 33.6562 61.4688
Q32.4219 61.7656 31.1719 61.9375
Q29.9375 62.1094 28.8125 62.1094
Q25.3438 62.1094 22.5781 60.4531
Q19.8281 58.7969 17.8281 55.4219
Q15.8281 52.0469 14.6719 46.9688
Q13.5312 41.8906 13.3281 35.0156
Q16.8438 36.8594 21.0156 38.0312
Q25.2031 39.2031 29.2969 39.2031
Q33.4062 39.2031 36.6875 38.0625
Q39.9844 36.9219 42.2812 34.5781
Q44.5781 32.2344 45.7969 28.6562
Q47.0156 25.0938 47.0156 20.3125
M26.8125 2.875
Q29.9375 2.875 32.0781 3.90625
Q34.2344 4.9375 35.5469 7
Q36.8594 9.07812 37.4219 12.1719
Q37.9844 15.2812 37.9844 19.3906
Q37.9844 27.3906 35.4688 30.9531
Q32.9531 34.5156 27.4844 34.5156
Q24.1719 34.5156 20.5312 33.875
Q16.8906 33.25 13.2812 32.0781
Q13.2812 25.0469 14.0312 19.625
Q14.7969 14.2031 16.4531 10.4688
Q18.1094 6.73438 20.6406 4.79688
Q23.1875 2.875 26.8125 2.875" id="LiberationSerif-36"/>
      </defs>
      <g transform="translate(268.469875 118.7626)scale(0.12 -0.12)">
       <use xlink:href="#LiberationSerif-36"/>
       <use x="50.0" xlink:href="#LiberationSerif-30"/>
      </g>
     </g>
    </g>
    <g id="xtick_5">
     <g id="line2d_37">
      <g>
       <use style="stroke:#000000;stroke-width:0.5;" x="342.3561875" xlink:href="#m93b0483c22" y="106.435725"/>
      </g>
     </g>
     <g id="line2d_38">
      <g>
       <use style="stroke:#000000;stroke-width:0.5;" x="342.3561875" xlink:href="#m741efc42ff" y="24.388275"/>
      </g>
     </g>
     <g id="text_5">
      <!-- 80 -->
      <defs>
       <path d="
M44.1875 49.5156
Q44.1875 44.1406 41.5781 40.4062
Q38.9688 36.6719 34.5156 34.7188
Q37.1562 33.7344 39.2969 32.1719
Q41.4531 30.6094 42.9844 28.4844
Q44.5312 26.375 45.3594 23.6562
Q46.1875 20.9531 46.1875 17.6719
Q46.1875 8.40625 40.9688 3.70312
Q35.75 -0.984375 24.7031 -0.984375
Q14.2656 -0.984375 9.03125 3.625
Q3.8125 8.25 3.8125 17.6719
Q3.8125 24.1719 6.9375 28.4375
Q10.0625 32.7188 15.375 34.7188
Q11.1406 36.6719 8.46875 40.375
Q5.8125 44.0938 5.8125 49.5156
Q5.8125 53.375 7 56.5156
Q8.20312 59.6719 10.5938 61.8906
Q12.9844 64.1094 16.5938 65.2969
Q20.2188 66.5 25.0938 66.5
Q29.7812 66.5 33.3438 65.3281
Q36.9219 64.1562 39.3281 61.9531
Q41.75 59.7656 42.9688 56.6094
Q44.1875 53.4688 44.1875 49.5156
M37.4062 17.6719
Q37.4062 21.2344 36.7656 24
Q36.1406 26.7656 34.6406 28.6562
Q33.1562 30.5625 30.7031 31.5312
Q28.2656 32.5156 24.7031 32.5156
Q21.0938 32.5156 18.75 31.5312
Q16.4062 30.5625 15.0312 28.6562
Q13.6719 26.7656 13.125 24
Q12.5938 21.2344 12.5938 17.6719
Q12.5938 14.0625 13.125 11.2969
Q13.6719 8.54688 15.0312 6.6875
Q16.4062 4.82812 18.75 3.84375
Q21.0938 2.875 24.7031 2.875
Q28.2656 2.875 30.7031 3.84375
Q33.1562 4.82812 34.6406 6.6875
Q36.1406 8.54688 36.7656 11.2969
Q37.4062 14.0625 37.4062 17.6719
M35.4062 49.5156
Q35.4062 52.3906 34.8906 54.7812
Q34.375 57.1719 33.1562 58.9062
Q31.9375 60.6406 29.875 61.6094
Q27.8281 62.5938 24.8125 62.5938
Q21.7812 62.5938 19.7969 61.6094
Q17.8281 60.6406 16.6719 58.9062
Q15.5312 57.1719 15.0625 54.7812
Q14.5938 52.3906 14.5938 49.5156
Q14.5938 46.5781 15.0625 44.2344
Q15.5312 41.8906 16.6719 40.2344
Q17.8281 38.5781 19.7969 37.6875
Q21.7812 36.8125 24.8125 36.8125
Q27.8281 36.8125 29.875 37.6875
Q31.9375 38.5781 33.1562 40.2344
Q34.375 41.8906 34.8906 44.2344
Q35.4062 46.5781 35.4062 49.5156" id="LiberationSerif-38"/>
      </defs>
      <g transform="translate(336.8136875 118.7626)scale(0.12 -0.12)">
       <use xlink:href="#LiberationSerif-38"/>
       <use x="50.0" xlink:href="#LiberationSerif-30"/>
      </g>
     </g>
    </g>
    <g id="xtick_6">
     <g id="line2d_39">
      <g>
       <use style="stroke:#000000;stroke-width:0.5;" x="410.7290625" xlink:href="#m93b0483c22" y="106.435725"/>
      </g>
     </g>
     <g id="line2d_40">
      <g>
       <use style="stroke:#000000;stroke-width:0.5;" x="410.7290625" xlink:href="#m741efc42ff" y="24.388275"/>
      </g>
     </g>
     <g id="text_6">
      <!-- 100 -->
      <defs>
       <path d="
M30.6094 3.90625
L44 2.59375
L44 0
L8.79688 0
L8.79688 2.59375
L22.2188 3.90625
L22.2188 57.3281
L8.98438 52.5938
L8.98438 55.1719
L28.0781 66.0156
L30.6094 66.0156
z
" id="LiberationSerif-31"/>
      </defs>
      <g transform="translate(402.485625 118.7626)scale(0.12 -0.12)">
       <use xlink:href="#LiberationSerif-31"/>
       <use x="50.0" xlink:href="#LiberationSerif-30"/>
       <use x="100.0" xlink:href="#LiberationSerif-30"/>
      </g>
     </g>
    </g>
    <g id="text_7">
     <!-- % misclassification -->
     <defs>
      <path d="
M16.3125 -0.984375
Q11.625 -0.984375 9.29688 1.79688
Q6.98438 4.59375 6.98438 9.625
L6.98438 41.7969
L0.984375 41.7969
L0.984375 44
L7.07812 45.9062
L12.0156 56.2969
L15.0938 56.2969
L15.0938 45.9062
L25.5938 45.9062
L25.5938 41.7969
L15.0938 41.7969
L15.0938 10.5
Q15.0938 7.32812 16.5312 5.71875
Q17.9688 4.10938 20.3125 4.10938
Q22.125 4.10938 23.9062 4.34375
Q25.6875 4.59375 27.2031 4.89062
L27.2031 1.70312
Q26.4688 1.21875 25.2656 0.734375
Q24.0781 0.25 22.625 -0.109375
Q21.1875 -0.484375 19.5781 -0.734375
Q17.9688 -0.984375 16.3125 -0.984375" id="LiberationSerif-74"/>
      <path d="
M18.5 60.8906
Q18.5 59.8125 18.0781 58.8594
Q17.6719 57.9062 16.9375 57.1719
Q16.2188 56.4531 15.2344 56.0312
Q14.2656 55.6094 13.1875 55.6094
Q12.1094 55.6094 11.1562 56.0312
Q10.2031 56.4531 9.46875 57.1719
Q8.73438 57.9062 8.3125 58.8594
Q7.90625 59.8125 7.90625 60.8906
Q7.90625 61.9688 8.3125 62.9375
Q8.73438 63.9219 9.46875 64.6406
Q10.2031 65.375 11.1562 65.7969
Q12.1094 66.2188 13.1875 66.2188
Q14.2656 66.2188 15.2344 65.7969
Q16.2188 65.375 16.9375 64.6406
Q17.6719 63.9219 18.0781 62.9375
Q18.5 61.9688 18.5 60.8906
M18.0156 3.42188
L25.875 2.20312
L25.875 0
L2.09375 0
L2.09375 2.20312
L9.90625 3.42188
L9.90625 42.4844
L3.42188 43.7031
L3.42188 45.9062
L18.0156 45.9062
z
" id="LiberationSerif-69"/>
      <path d="
M35.2969 12.8906
Q35.2969 9.8125 34.3438 7.25
Q33.4062 4.6875 31.3438 2.85938
Q29.2969 1.03125 26.0469 0.015625
Q22.7969 -0.984375 18.2188 -0.984375
Q15.9219 -0.984375 13.6875 -0.703125
Q11.4688 -0.4375 9.5625 -0.0625
Q7.67188 0.296875 6.25 0.6875
Q4.82812 1.07812 4.20312 1.3125
L4.20312 12.5938
L6.39062 12.5938
L8.79688 6.20312
Q10.2969 4.82812 12.6875 3.84375
Q15.0938 2.875 18.3125 2.875
Q22.8594 2.875 25.3125 4.85938
Q27.7812 6.84375 27.7812 10.9844
Q27.7812 13.4219 26.75 15.0156
Q25.7344 16.6094 24.0625 17.6719
Q22.4062 18.75 20.2812 19.4531
Q18.1719 20.1719 15.9375 20.8906
Q13.7188 21.625 11.5938 22.5469
Q9.46875 23.4844 7.8125 24.9531
Q6.15625 26.4219 5.125 28.6094
Q4.10938 30.8125 4.10938 34.0781
Q4.10938 37.2031 5.21875 39.6406
Q6.34375 42.0938 8.375 43.75
Q10.4062 45.4062 13.2031 46.2656
Q16.0156 47.125 19.3906 47.125
Q22.7031 47.125 25.875 46.6562
Q29.0469 46.1875 31.9844 45.6094
L31.9844 35.5938
L29.6875 35.5938
L27.6406 40.9219
Q26.375 42.0469 24.1719 42.625
Q21.9688 43.2188 19.4844 43.2188
Q15.5312 43.2188 13.4531 41.2656
Q11.375 39.3125 11.375 35.9844
Q11.375 33.7344 12.3906 32.2969
Q13.4219 30.8594 15.1094 29.8594
Q16.7969 28.8594 18.9375 28.125
Q21.0938 27.3906 23.3438 26.6094
Q25.5938 25.8281 27.7344 24.8281
Q29.8906 23.8281 31.5625 22.2656
Q33.25 20.7031 34.2656 18.4531
Q35.2969 16.2188 35.2969 12.8906" id="LiberationSerif-73"/>
      <path d="
M41.3125 2.78125
Q40.0469 1.85938 38.2812 1.14062
Q36.5312 0.4375 34.5156 -0.015625
Q32.5156 -0.484375 30.3438 -0.734375
Q28.1719 -0.984375 26.125 -0.984375
Q20.1719 -0.984375 15.9375 0.65625
Q11.7188 2.29688 9.03125 5.42188
Q6.34375 8.54688 5.07812 13.0625
Q3.8125 17.5781 3.8125 23.2969
Q3.8125 29.5469 5.4375 34.0625
Q7.07812 38.5781 10 41.4844
Q12.9375 44.3906 16.9688 45.75
Q21 47.125 25.7812 47.125
Q29.7344 47.125 33.4375 46.6562
Q37.1562 46.1875 40.1875 45.6094
L40.1875 32.8125
L37.5 32.8125
L35.4062 40.9219
Q33.5938 41.9375 31.0312 42.5781
Q28.4688 43.2188 25.6875 43.2188
Q22.5156 43.2188 20.0938 42.0625
Q17.6719 40.9219 15.9844 38.4688
Q14.3125 36.0312 13.4531 32.2656
Q12.5938 28.5156 12.5938 23.2969
Q12.5938 18.8906 13.3281 15.3438
Q14.0625 11.8125 15.9219 9.32812
Q17.7812 6.84375 20.9219 5.46875
Q24.0781 4.10938 28.9062 4.10938
Q30.5625 4.10938 32.2969 4.21875
Q34.0312 4.34375 35.6719 4.5625
Q37.3125 4.78125 38.75 5.07812
Q40.1875 5.375 41.3125 5.71875
z
" id="LiberationSerif-63"/>
      <path d="
M22.7031 46.9219
Q25.8281 46.9219 28.5156 46.3281
Q31.2031 45.75 33.1562 44.3281
Q35.1094 42.9219 36.2031 40.5
Q37.3125 38.0938 37.3125 34.4219
L37.3125 3.42188
L43.0156 2.20312
L43.0156 0
L30.4219 0
L29.5 4.59375
Q28.7656 3.85938 27.5156 2.875
Q26.2656 1.90625 24.5 1.04688
Q22.75 0.203125 20.4219 -0.390625
Q18.1094 -0.984375 15.2812 -0.984375
Q11.9688 -0.984375 9.6875 0.046875
Q7.42188 1.07812 6.04688 2.90625
Q4.6875 4.73438 4.09375 7.25
Q3.51562 9.76562 3.51562 12.7031
Q3.51562 15.7188 4.25 17.9375
Q4.98438 20.1719 6.29688 21.6719
Q7.625 23.1875 9.40625 24.1406
Q11.1875 25.0938 13.25 25.625
Q15.3281 26.1719 17.6406 26.3594
Q19.9688 26.5625 22.3125 26.6094
L29.2031 26.8125
L29.2031 33.9844
Q29.2031 36.0312 28.8594 37.7188
Q28.5156 39.4062 27.7031 40.625
Q26.9062 41.8438 25.5312 42.5312
Q24.1719 43.2188 22.125 43.2188
Q19.7812 43.2188 17.375 42.5781
Q14.9844 41.9375 13.1875 40.9219
L11.5312 35.2031
L8.79688 35.2031
L8.79688 45.2188
Q11.9688 45.9062 15.3594 46.4062
Q18.75 46.9219 22.7031 46.9219
M29.2031 23.3906
L22.7969 23.1875
Q19.9219 23.0938 17.8125 22.625
Q15.7188 22.1719 14.3438 21.0469
Q12.9844 19.9219 12.2969 17.9688
Q11.625 16.0156 11.625 12.9844
Q11.625 4.39062 18.6094 4.39062
Q21.9219 4.39062 24.3438 5.14062
Q26.7656 5.90625 29.2031 7.07812
z
" id="LiberationSerif-61"/>
      <path d="
M10.9844 41.7969
L3.07812 41.7969
L3.07812 44.1875
L10.9844 46.0938
L10.9844 49.3125
Q10.9844 54.5 12.0312 58.4219
Q13.0938 62.3594 15.0625 65.0156
Q17.0469 67.6719 19.8906 69.0312
Q22.75 70.4062 26.3125 70.4062
Q28.5156 70.4062 30.2188 70.1406
Q31.9375 69.875 33.2969 69.4844
L33.2969 59.4688
L30.9062 59.4688
L28.7188 65.4844
Q27.9375 65.9688 27 66.2344
Q26.0781 66.5 24.7031 66.5
Q23 66.5 21.9219 65.7344
Q20.8438 64.9844 20.2031 63.3906
Q19.5781 61.8125 19.3281 59.375
Q19.0938 56.9375 19.0938 53.5156
L19.0938 45.9062
L31.2969 45.9062
L31.2969 41.7969
L19.0938 41.7969
L19.0938 3.8125
L29 2.20312
L29 0
L4.20312 0
L4.20312 2.20312
L10.9844 3.8125
z
" id="LiberationSerif-66"/>
      <path d="
M21.4844 -0.984375
L16.1094 -0.984375
L62.4062 66.5
L67.8281 66.5
z

M35.2031 48.5781
Q35.2031 39.8438 31.2656 35.125
Q27.3438 30.4219 19.0938 30.4219
Q11.2344 30.4219 7.32812 35.0625
Q3.42188 39.7031 3.42188 48.5781
Q3.42188 57.2812 7.34375 61.8906
Q11.2812 66.5 19.3906 66.5
Q27.1562 66.5 31.1719 62
Q35.2031 57.5156 35.2031 48.5781
M27.5938 48.5781
Q27.5938 52 27.1406 54.6562
Q26.7031 57.3281 25.7188 59.1562
Q24.75 60.9844 23.1094 61.9375
Q21.4844 62.8906 19.0938 62.8906
Q16.7031 62.8906 15.1406 61.9375
Q13.5781 60.9844 12.6406 59.1562
Q11.7188 57.3281 11.3438 54.6562
Q10.9844 52 10.9844 48.5781
Q10.9844 45.125 11.3438 42.4062
Q11.7188 39.7031 12.6406 37.8438
Q13.5781 35.9844 15.1406 34.9844
Q16.7031 33.9844 19.0938 33.9844
Q21.4844 33.9844 23.1094 34.9844
Q24.75 35.9844 25.7188 37.8438
Q26.7031 39.7031 27.1406 42.4062
Q27.5938 45.125 27.5938 48.5781
M79.8906 16.8906
Q79.8906 8.10938 75.9844 3.39062
Q72.0781 -1.3125 63.8125 -1.3125
Q55.9531 -1.3125 52.0156 3.3125
Q48.0938 7.95312 48.0938 16.8906
Q48.0938 25.5938 52.0469 30.2031
Q56 34.8125 64.1094 34.8125
Q71.875 34.8125 75.875 30.3125
Q79.8906 25.8281 79.8906 16.8906
M72.3125 16.8906
Q72.3125 20.3125 71.875 22.9688
Q71.4375 25.6406 70.4531 27.4688
Q69.4844 29.2969 67.8438 30.25
Q66.2188 31.2031 63.8125 31.2031
Q61.4219 31.2031 59.8594 30.25
Q58.2969 29.2969 57.375 27.4688
Q56.4531 25.6406 56.0781 22.9688
Q55.7188 20.3125 55.7188 16.8906
Q55.7188 13.4219 56.0781 10.7188
Q56.4531 8.01562 57.375 6.15625
Q58.2969 4.29688 59.8594 3.29688
Q61.4219 2.29688 63.8125 2.29688
Q66.2188 2.29688 67.8438 3.29688
Q69.4844 4.29688 70.4531 6.15625
Q71.4375 8.01562 71.875 10.7188
Q72.3125 13.4219 72.3125 16.8906" id="LiberationSerif-25"/>
      <path id="LiberationSerif-20"/>
      <path d="
M17.9219 3.42188
L25.7812 2.20312
L25.7812 0
L2 0
L2 2.20312
L9.8125 3.42188
L9.8125 66.0156
L2 67.1875
L2 69.3906
L17.9219 69.3906
z
" id="LiberationSerif-6c"/>
      <path d="
M46.1875 23.1875
Q46.1875 11.5312 40.9688 5.26562
Q35.75 -0.984375 24.7031 -0.984375
Q14.3594 -0.984375 9.07812 5.21875
Q3.8125 11.4219 3.8125 23.1875
Q3.8125 34.8125 9.07812 40.9688
Q14.3594 47.125 25.0938 47.125
Q35.5469 47.125 40.8594 41.0938
Q46.1875 35.0625 46.1875 23.1875
M37.4062 23.1875
Q37.4062 27.9375 36.7656 31.6719
Q36.1406 35.4062 34.6406 37.9688
Q33.1562 40.5312 30.7031 41.875
Q28.2656 43.2188 24.7031 43.2188
Q21.0938 43.2188 18.75 41.875
Q16.4062 40.5312 15.0312 37.9688
Q13.6719 35.4062 13.125 31.6719
Q12.5938 27.9375 12.5938 23.1875
Q12.5938 18.4062 13.125 14.6406
Q13.6719 10.8906 15.0312 8.28125
Q16.4062 5.67188 18.75 4.26562
Q21.0938 2.875 24.7031 2.875
Q28.2656 2.875 30.7031 4.26562
Q33.1562 5.67188 34.6406 8.28125
Q36.1406 10.8906 36.7656 14.6406
Q37.4062 18.4062 37.4062 23.1875" id="LiberationSerif-6f"/>
      <path d="
M15.8281 42.1875
Q17.1875 42.9688 19.0625 43.8438
Q20.9531 44.7344 23 45.4531
Q25.0469 46.1875 27.0938 46.6562
Q29.1562 47.125 30.9062 47.125
Q33.5469 47.125 35.7344 46.3906
Q37.9375 45.6562 39.5156 44.0469
Q41.1094 42.4375 42.0156 39.8438
Q42.9219 37.25 42.9219 33.5938
L42.9219 3.42188
L48.4844 2.20312
L48.4844 0
L28.7188 0
L28.7188 2.20312
L34.8125 3.42188
L34.8125 32.7188
Q34.8125 36.7656 32.8281 39.0781
Q30.8594 41.4062 26.7031 41.4062
Q25.3438 41.4062 23.8281 41.25
Q22.3125 41.1094 20.8438 40.9062
Q19.3906 40.7188 18.0938 40.4531
Q16.7969 40.1875 15.9219 39.9844
L15.9219 3.42188
L22.125 2.20312
L22.125 0
L2.29688 0
L2.29688 2.20312
L7.8125 3.42188
L7.8125 42.4844
L2.29688 43.7031
L2.29688 45.9062
L15.375 45.9062
z
" id="LiberationSerif-6e"/>
      <path d="
M15.9219 42.1875
Q17.2812 42.9688 19.1562 43.8438
Q21.0469 44.7344 23.0469 45.4531
Q25.0469 46.1875 27.0938 46.6562
Q29.1562 47.125 30.9062 47.125
Q34.2812 47.125 37.125 45.8438
Q39.9844 44.5781 41.4062 41.7969
Q42.9688 42.6719 45.1562 43.625
Q47.3594 44.5781 49.7188 45.3594
Q52.0938 46.1406 54.4062 46.625
Q56.7344 47.125 58.5938 47.125
Q61.2344 47.125 63.375 46.3906
Q65.5312 45.6562 67.0625 44.0469
Q68.6094 42.4375 69.4531 39.8438
Q70.3125 37.25 70.3125 33.5938
L70.3125 3.42188
L76.2188 2.20312
L76.2188 0
L55.375 0
L55.375 2.20312
L62.2031 3.42188
L62.2031 32.7188
Q62.2031 36.7656 60.375 38.9375
Q58.5469 41.1094 54.3906 41.1094
Q53.125 41.1094 51.4375 40.9062
Q49.75 40.7188 48.0625 40.4688
Q46.3906 40.2344 44.8438 39.9062
Q43.3125 39.5938 42.2812 39.4062
Q43.1094 36.7656 43.1094 33.5938
L43.1094 3.42188
L50 2.20312
L50 0
L28.2188 0
L28.2188 2.20312
L35.0156 3.42188
L35.0156 32.7188
Q35.0156 36.7656 32.9375 38.9375
Q30.8594 41.1094 26.7031 41.1094
Q25.3438 41.1094 23.8438 40.9688
Q22.3594 40.8281 20.9219 40.625
Q19.4844 40.4375 18.1875 40.1562
Q16.8906 39.8906 16.0156 39.7031
L16.0156 3.42188
L22.9062 2.20312
L22.9062 0
L2.09375 0
L2.09375 2.20312
L7.90625 3.42188
L7.90625 42.4844
L2.09375 43.7031
L2.09375 45.9062
L15.5312 45.9062
z
" id="LiberationSerif-6d"/>
     </defs>
     <g transform="translate(193.064375 134.6451)scale(0.12 -0.12)">
      <use xlink:href="#LiberationSerif-25"/>
      <use x="83.30078125" xlink:href="#LiberationSerif-20"/>
      <use x="108.30078125" xlink:href="#LiberationSerif-6d"/>
      <use x="186.083984375" xlink:href="#LiberationSerif-69"/>
      <use x="213.8671875" xlink:href="#LiberationSerif-73"/>
      <use x="252.783203125" xlink:href="#LiberationSerif-63"/>
      <use x="297.16796875" xlink:href="#LiberationSerif-6c"/>
      <use x="324.951171875" xlink:href="#LiberationSerif-61"/>
      <use x="369.3359375" xlink:href="#LiberationSerif-73"/>
      <use x="408.251953125" xlink:href="#LiberationSerif-73"/>
      <use x="447.16796875" xlink:href="#LiberationSerif-69"/>
      <use x="474.951171875" xlink:href="#LiberationSerif-66"/>
      <use x="508.251953125" xlink:href="#LiberationSerif-69"/>
      <use x="536.03515625" xlink:href="#LiberationSerif-63"/>
      <use x="580.419921875" xlink:href="#LiberationSerif-61"/>
      <use x="624.8046875" xlink:href="#LiberationSerif-74"/>
      <use x="652.587890625" xlink:href="#LiberationSerif-69"/>
      <use x="680.37109375" xlink:href="#LiberationSerif-6f"/>
      <use x="730.37109375" xlink:href="#LiberationSerif-6e"/>
     </g>
    </g>
   </g>
   <g id="matplotlib.axis_2">
    <g id="ytick_1">
     <g id="line2d_41">
      <defs>
       <path d="
M0 0
L4 0" id="m728421d6d4" style="stroke:#000000;stroke-width:0.5;"/>
      </defs>
      <g>
       <use style="stroke:#000000;stroke-width:0.5;" x="68.8646875" xlink:href="#m728421d6d4" y="96.17979375"/>
      </g>
     </g>
     <g id="line2d_42">
      <defs>
       <path d="
M0 0
L-4 0" id="mcb0005524f" style="stroke:#000000;stroke-width:0.5;"/>
      </defs>
      <g>
       <use style="stroke:#000000;stroke-width:0.5;" x="410.7290625" xlink:href="#mcb0005524f" y="96.17979375"/>
      </g>
     </g>
     <g id="text_8">
      <!-- TPE -->
      <defs>
       <path d="
M41.8906 46.0938
Q41.8906 50 41.0312 52.8281
Q40.1875 55.6719 38.25 57.5
Q36.3281 59.3281 33.2031 60.2031
Q30.0781 61.0781 25.4844 61.0781
L20.7031 61.0781
L20.7031 30.0781
L25.7812 30.0781
Q30.375 30.0781 33.4688 31.1719
Q36.5781 32.2812 38.4531 34.3281
Q40.3281 36.375 41.1094 39.3438
Q41.8906 42.3281 41.8906 46.0938
M20.7031 25.6875
L20.7031 3.90625
L31.1094 2.59375
L31.1094 0
L3.51562 0
L3.51562 2.59375
L11.2812 3.90625
L11.2812 61.625
L2.875 62.8906
L2.875 65.4844
L27.5938 65.4844
Q34.4688 65.4844 39.0781 63.9844
Q43.7031 62.5 46.4844 59.8906
Q49.2656 57.2812 50.4375 53.7656
Q51.6094 50.25 51.6094 46.1875
Q51.6094 42.1875 50.4531 38.4688
Q49.3125 34.7656 46.5938 31.9375
Q43.8906 29.1094 39.3438 27.3906
Q34.8125 25.6875 28.0781 25.6875
z
" id="LiberationSerif-50"/>
       <path d="
M2.875 2.59375
L11.2812 3.90625
L11.2812 61.625
L2.875 62.8906
L2.875 65.4844
L52 65.4844
L52 49.8125
L48.7812 49.8125
L47.2188 60.4062
Q45.6562 60.5938 43.4375 60.7344
Q41.2188 60.8906 38.9219 60.9531
Q36.625 61.0312 34.5625 61.0469
Q32.5156 61.0781 31.3906 61.0781
L20.7031 61.0781
L20.7031 35.5
L38.375 35.5
L39.8906 43.3125
L43.0156 43.3125
L43.0156 23.1875
L39.8906 23.1875
L38.375 31.1094
L20.7031 31.1094
L20.7031 4.39062
L33.5938 4.39062
Q36.625 4.39062 39.3125 4.46875
Q42 4.54688 44.1406 4.64062
Q46.2969 4.73438 47.8281 4.875
Q49.3594 5.03125 50.0938 5.17188
L52.875 17.2812
L56.1094 17.2812
L55.1719 0
L2.875 0
z
" id="LiberationSerif-45"/>
       <path d="
M15.375 0
L15.375 2.59375
L25.7812 3.90625
L25.7812 61.2812
L23.2969 61.2812
Q16.8906 61.2812 12.5469 60.9844
Q8.20312 60.6875 6.39062 60.2969
L5.07812 50.0938
L1.8125 50.0938
L1.8125 65.4844
L59.4219 65.4844
L59.4219 50.0938
L56.1094 50.0938
L54.7812 60.2969
Q53.9062 60.5 52.1719 60.6406
Q50.4375 60.7969 48.1406 60.9062
Q45.8438 61.0312 43.1406 61.1094
Q40.4375 61.1875 37.5938 61.1875
L35.2031 61.1875
L35.2031 3.90625
L45.6094 2.59375
L45.6094 0
z
" id="LiberationSerif-54"/>
      </defs>
      <g transform="translate(47.76625 98.58448125)scale(0.1 -0.1)">
       <use xlink:href="#LiberationSerif-54"/>
       <use x="61.083984375" xlink:href="#LiberationSerif-50"/>
       <use x="116.69921875" xlink:href="#LiberationSerif-45"/>
      </g>
     </g>
    </g>
    <g id="ytick_2">
     <g id="line2d_43">
      <g>
       <use style="stroke:#000000;stroke-width:0.5;" x="68.8646875" xlink:href="#m728421d6d4" y="75.66793125"/>
      </g>
     </g>
     <g id="line2d_44">
      <g>
       <use style="stroke:#000000;stroke-width:0.5;" x="410.7290625" xlink:href="#mcb0005524f" y="75.66793125"/>
      </g>
     </g>
     <g id="text_9">
      <!-- SMAC -->
      <defs>
       <path d="
M22.5156 2.59375
L22.5156 0
L0.984375 0
L0.984375 2.59375
L8.40625 3.90625
L30.7188 66.0156
L39.9844 66.0156
L63.1875 3.90625
L71.4844 2.59375
L71.4844 0
L43.7969 0
L43.7969 2.59375
L52.5938 3.90625
L46.0938 22.7969
L20.3125 22.7969
L13.7188 3.90625
z

M33.0156 58.9844
L21.7812 27.2031
L44.5781 27.2031
z
" id="LiberationSerif-41"/>
       <path d="
M6.78125 17.625
L9.96875 17.625
L11.6719 8.79688
Q12.5938 7.625 14.25 6.5625
Q15.9219 5.51562 17.9375 4.70312
Q19.9688 3.90625 22.2188 3.4375
Q24.4688 2.98438 26.6094 2.98438
Q30.3281 2.98438 33.0625 3.98438
Q35.7969 4.98438 37.5781 6.73438
Q39.3594 8.5 40.2344 10.8906
Q41.1094 13.2812 41.1094 16.1094
Q41.1094 19.625 39.625 21.9219
Q38.1406 24.2188 35.7188 25.7969
Q33.2969 27.3906 30.2188 28.4844
Q27.1562 29.5938 23.9062 30.7188
Q20.6562 31.8438 17.5781 33.2031
Q14.5 34.5781 12.0781 36.6719
Q9.67188 38.7656 8.17188 41.8594
Q6.6875 44.9688 6.6875 49.5156
Q6.6875 53.3281 8.15625 56.4219
Q9.625 59.5156 12.4531 61.6875
Q15.2812 63.875 19.4062 65.0469
Q23.5312 66.2188 28.8125 66.2188
Q33.6406 66.2188 37.9844 65.5781
Q42.3281 64.9375 46 64.1094
L46 50.4844
L42.8281 50.4844
L41.1094 58.5
Q38.9688 60.0625 35.8438 61.0781
Q32.7188 62.1094 28.8125 62.1094
Q25.2031 62.1094 22.5781 61.3281
Q19.9688 60.5469 18.25 59.2031
Q16.5469 57.8594 15.7188 56.0312
Q14.8906 54.2031 14.8906 52.0938
Q14.8906 48.9219 16.375 46.8281
Q17.875 44.7344 20.2812 43.2344
Q22.7031 41.75 25.7969 40.6719
Q28.9062 39.5938 32.1562 38.4531
Q35.4062 37.3125 38.5 35.8594
Q41.6094 34.4219 44.0156 32.2031
Q46.4375 29.9844 47.9219 26.7812
Q49.4219 23.5781 49.4219 18.8906
Q49.4219 14.3594 48.0156 10.6875
Q46.625 7.03125 43.8125 4.42188
Q41.0156 1.8125 36.7812 0.40625
Q32.5625 -0.984375 26.8594 -0.984375
Q23.8281 -0.984375 20.8906 -0.6875
Q17.9688 -0.390625 15.375 0.09375
Q12.7969 0.59375 10.5938 1.21875
Q8.40625 1.85938 6.78125 2.48438
z
" id="LiberationSerif-53"/>
       <path d="
M37.7969 -0.984375
Q29.7812 -0.984375 23.5 1.26562
Q17.2344 3.51562 12.9062 7.76562
Q8.59375 12.0156 6.34375 18.1406
Q4.10938 24.2656 4.10938 31.9844
Q4.10938 40.7656 6.375 47.2031
Q8.64062 53.6562 12.9531 57.875
Q17.2812 62.1094 23.5781 64.1562
Q29.8906 66.2188 37.9844 66.2188
Q41.3594 66.2188 44.3281 65.9844
Q47.3125 65.7656 50.0156 65.4219
Q52.7344 65.0938 55.1719 64.6406
Q57.625 64.2031 59.9062 63.7188
L60.2031 49.4219
L56.9844 49.4219
L55.5156 57.9062
Q52.0938 60.0156 47.5781 61.1562
Q43.0625 62.3125 38.375 62.3125
Q32.6719 62.3125 28.2031 60.75
Q23.7344 59.1875 20.6562 55.6406
Q17.5781 52.0938 15.9375 46.3125
Q14.3125 40.5312 14.3125 32.0781
Q14.3125 24.6562 15.9219 19.1562
Q17.5312 13.6719 20.5469 10.0312
Q23.5781 6.39062 27.9531 4.57812
Q32.3281 2.78125 37.8906 2.78125
Q40.9219 2.78125 43.6719 3.17188
Q46.4375 3.5625 48.7969 4.25
Q51.1719 4.9375 53.0469 5.82812
Q54.9375 6.73438 56.2031 7.71875
L58.0156 17.4844
L61.1875 17.4844
L60.8906 2.09375
Q58.8438 1.51562 56.2031 0.953125
Q53.5625 0.390625 50.5781 -0.046875
Q47.6094 -0.484375 44.3281 -0.734375
Q41.0625 -0.984375 37.7969 -0.984375" id="LiberationSerif-43"/>
       <path d="
M42.0938 0
L40.375 0
L16.4062 56.2969
L16.4062 3.90625
L25.2031 2.59375
L25.2031 0
L2.875 0
L2.875 2.59375
L11.2812 3.90625
L11.2812 61.625
L2.875 62.8906
L2.875 65.4844
L22.7031 65.4844
L44 15.6719
L67.2344 65.4844
L85.9844 65.4844
L85.9844 62.8906
L77.5938 61.625
L77.5938 3.90625
L85.9844 2.59375
L85.9844 0
L59.4219 0
L59.4219 2.59375
L68.2188 3.90625
L68.2188 56.2969
z
" id="LiberationSerif-4d"/>
      </defs>
      <g transform="translate(37.7396875 78.07261875)scale(0.1 -0.1)">
       <use xlink:href="#LiberationSerif-53"/>
       <use x="55.615234375" xlink:href="#LiberationSerif-4d"/>
       <use x="144.53125" xlink:href="#LiberationSerif-41"/>
       <use x="216.748046875" xlink:href="#LiberationSerif-43"/>
      </g>
     </g>
    </g>
    <g id="ytick_3">
     <g id="line2d_45">
      <g>
       <use style="stroke:#000000;stroke-width:0.5;" x="68.8646875" xlink:href="#m728421d6d4" y="55.15606875"/>
      </g>
     </g>
     <g id="line2d_46">
      <g>
       <use style="stroke:#000000;stroke-width:0.5;" x="410.7290625" xlink:href="#mcb0005524f" y="55.15606875"/>
      </g>
     </g>
     <g id="text_10">
      <!-- RAND -->
      <defs>
       <path d="
M20.7031 28.7188
L20.7031 3.90625
L30.6094 2.59375
L30.6094 0
L3.51562 0
L3.51562 2.59375
L11.2812 3.90625
L11.2812 61.625
L2.875 62.8906
L2.875 65.4844
L31.1562 65.4844
Q38.0312 65.4844 42.6406 64.25
Q47.2656 63.0312 50.0469 60.7656
Q52.8281 58.5 54 55.2656
Q55.1719 52.0469 55.1719 48
Q55.1719 44.2344 54.0781 41.2812
Q52.9844 38.3281 51.125 36.0781
Q49.2656 33.8438 46.8281 32.3438
Q44.3906 30.8594 41.75 30.0781
L59.4688 3.90625
L66.5469 2.59375
L66.5469 0
L50.875 0
L32.4688 28.7188
z

M45.4531 47.3125
Q45.4531 51.2188 44.5312 53.8594
Q43.6094 56.5 41.625 58.1094
Q39.6562 59.7188 36.5469 60.3906
Q33.4531 61.0781 29.0469 61.0781
L20.7031 61.0781
L20.7031 33.1094
L29.3438 33.1094
Q33.8438 33.1094 36.9062 33.9062
Q39.9844 34.7188 41.8906 36.4531
Q43.7969 38.1875 44.625 40.875
Q45.4531 43.5625 45.4531 47.3125" id="LiberationSerif-52"/>
       <path d="
M56.3906 61.625
L47.6094 62.8906
L47.6094 65.4844
L69.9219 65.4844
L69.9219 62.8906
L61.5312 61.625
L61.5312 0
L56.7812 0
L16.4062 58.8906
L16.4062 3.90625
L25.2031 2.59375
L25.2031 0
L2.875 0
L2.875 2.59375
L11.2812 3.90625
L11.2812 61.625
L2.875 62.8906
L2.875 65.4844
L22.7031 65.4844
L56.3906 17
z
" id="LiberationSerif-4e"/>
       <path d="
M58.0156 33.2031
Q58.0156 40.4375 56 45.6719
Q54 50.9219 50.2656 54.3438
Q46.5312 57.7656 41.25 59.4219
Q35.9844 61.0781 29.5 61.0781
L20.7031 61.0781
L20.7031 4.59375
Q22.1719 4.5 23.875 4.4375
Q25.5938 4.39062 27.3906 4.3125
Q29.2031 4.25 31.0312 4.21875
Q32.8594 4.20312 34.625 4.20312
Q40.8281 4.20312 45.2344 6.03125
Q49.6562 7.85938 52.4844 11.5
Q55.3281 15.1406 56.6719 20.5625
Q58.0156 25.9844 58.0156 33.2031
M32.625 65.4844
Q40.7656 65.4844 47.3281 63.7656
Q53.9062 62.0625 58.5469 58.2031
Q63.1875 54.3438 65.7031 48.1875
Q68.2188 42.0469 68.2188 33.1094
Q68.2188 25.0938 66.1562 18.8906
Q64.1094 12.7031 59.9531 8.45312
Q55.8125 4.20312 49.4844 2
Q43.1719 -0.203125 34.625 -0.203125
Q31.8438 -0.203125 28.5469 -0.171875
Q25.25 -0.140625 22.0625 -0.09375
Q18.8906 -0.046875 16.0312 -0.015625
Q13.1875 0 11.2812 0
L2.875 0
L2.875 2.59375
L11.2812 3.90625
L11.2812 61.625
L2.875 62.8906
L2.875 65.4844
z
" id="LiberationSerif-44"/>
      </defs>
      <g transform="translate(37.21625 57.56075625)scale(0.1 -0.1)">
       <use xlink:href="#LiberationSerif-52"/>
       <use x="66.69921875" xlink:href="#LiberationSerif-41"/>
       <use x="138.916015625" xlink:href="#LiberationSerif-4e"/>
       <use x="211.1328125" xlink:href="#LiberationSerif-44"/>
      </g>
     </g>
    </g>
    <g id="ytick_4">
     <g id="line2d_47">
      <g>
       <use style="stroke:#000000;stroke-width:0.5;" x="68.8646875" xlink:href="#m728421d6d4" y="34.64420625"/>
      </g>
     </g>
     <g id="line2d_48">
      <g>
       <use style="stroke:#000000;stroke-width:0.5;" x="410.7290625" xlink:href="#mcb0005524f" y="34.64420625"/>
      </g>
     </g>
     <g id="text_11">
      <!-- WEKA-DEF -->
      <defs>
       <path d="
M3.71875 19.8281
L3.71875 27.2969
L29.6875 27.2969
L29.6875 19.8281
z
" id="LiberationSerif-2d"/>
       <path d="
M66.0625 65.4844
L66.0625 62.8906
L58.5 61.625
L36.1406 39.75
L64.1094 3.90625
L71.1875 2.59375
L71.1875 0
L55.1719 0
L29.5469 33.1094
L20.7031 26.0312
L20.7031 3.90625
L30.0781 2.59375
L30.0781 0
L2.875 0
L2.875 2.59375
L11.2812 3.90625
L11.2812 61.625
L2.875 62.8906
L2.875 65.4844
L29.1094 65.4844
L29.1094 62.8906
L20.7031 61.625
L20.7031 30.7656
L52.0469 61.625
L45.5625 62.8906
L45.5625 65.4844
z
" id="LiberationSerif-4b"/>
       <path d="
M88.4844 61.625
L67.0938 -1.51562
L64.5 -1.51562
L47.5156 43.6094
L30.0781 -1.51562
L27.4844 -1.51562
L5.8125 61.625
L0.09375 62.8906
L0.09375 65.4844
L25.0938 65.4844
L25.0938 62.8906
L15.4844 61.625
L31.0625 15.4844
L48.6875 60.8906
L50.875 60.8906
L67.875 15.4844
L82.7188 61.625
L72.5156 62.8906
L72.5156 65.4844
L94.1875 65.4844
L94.1875 62.8906
z
" id="LiberationSerif-57"/>
       <path d="
M20.7031 29.3906
L20.7031 3.90625
L31.5938 2.59375
L31.5938 0
L3.51562 0
L3.51562 2.59375
L11.2812 3.90625
L11.2812 61.625
L2.875 62.8906
L2.875 65.4844
L52 65.4844
L52 49.8125
L48.7812 49.8125
L47.2188 60.4062
Q45.6562 60.5938 43.4375 60.7344
Q41.2188 60.8906 38.9219 60.9531
Q36.625 61.0312 34.5625 61.0469
Q32.5156 61.0781 31.3906 61.0781
L20.7031 61.0781
L20.7031 33.7969
L39.9844 33.7969
L41.5 41.6094
L44.4844 41.6094
L44.4844 21.4844
L41.5 21.4844
L39.9844 29.3906
z
" id="LiberationSerif-46"/>
      </defs>
      <g transform="translate(13.0240625 37.04889375)scale(0.1 -0.1)">
       <use xlink:href="#LiberationSerif-57"/>
       <use x="94.384765625" xlink:href="#LiberationSerif-45"/>
       <use x="155.46875" xlink:href="#LiberationSerif-4b"/>
       <use x="227.685546875" xlink:href="#LiberationSerif-41"/>
       <use x="299.90234375" xlink:href="#LiberationSerif-2d"/>
       <use x="333.203125" xlink:href="#LiberationSerif-44"/>
       <use x="405.419921875" xlink:href="#LiberationSerif-45"/>
       <use x="466.50390625" xlink:href="#LiberationSerif-46"/>
      </g>
     </g>
    </g>
   </g>
   <g id="text_12">
    <!-- amazon -->
    <defs>
     <path d="
M2.6875 0
L2.6875 2.20312
L27.875 42
L17.0938 42
Q15.7188 42 14.375 41.875
Q13.0312 41.75 11.8281 41.5312
Q10.6406 41.3125 9.71875 40.9844
Q8.79688 40.6719 8.29688 40.2812
L6.78125 33.6875
L4.5 33.6875
L4.5 45.9062
L38.375 45.9062
L38.375 43.5
L13.1875 3.90625
L26.6094 3.90625
Q27.9375 3.90625 29.4219 4.07812
Q30.9062 4.25 32.2969 4.53125
Q33.6875 4.82812 34.875 5.25
Q36.0781 5.67188 36.8125 6.20312
L39.3125 15.8281
L41.6094 15.8281
L40.375 0
z
" id="LiberationSerif-7a"/>
    </defs>
    <g transform="translate(217.7705 19.388275)scale(0.144 -0.144)">
     <use xlink:href="#LiberationSerif-61"/>
     <use x="44.384765625" xlink:href="#LiberationSerif-6d"/>
     <use x="122.16796875" xlink:href="#LiberationSerif-61"/>
     <use x="166.552734375" xlink:href="#LiberationSerif-7a"/>
     <use x="210.9375" xlink:href="#LiberationSerif-6f"/>
     <use x="260.9375" xlink:href="#LiberationSerif-6e"/>
    </g>
   </g>
  </g>
 </g>
 <defs>
  <clipPath id="p13eeb3db45">
   <rect height="82.04745" width="341.864375" x="68.8646875" y="24.388275"/>
  </clipPath>
 </defs>
</svg>
